<svg width="25" height="24" viewBox="0 0 25 24" fill="none" xmlns="http://www.w3.org/2000/svg">
<g id="back">
<mask id="mask0_995_451" style="mask-type:alpha" maskUnits="userSpaceOnUse" x="0" y="0" width="25" height="24">
<rect id="Bounding box" x="0.5" width="24" height="24" fill="#D9D9D9"/>
</mask>
<g mask="url(#mask0_995_451)">
<path id="arrow_back" d="M11.375 19.3L4.775 12.7C4.675 12.6 4.60417 12.4917 4.5625 12.375C4.52083 12.2583 4.5 12.1333 4.5 12C4.5 11.8667 4.52083 11.7417 4.5625 11.625C4.60417 11.5083 4.675 11.4 4.775 11.3L11.375 4.7C11.5583 4.51667 11.7875 4.42084 12.0625 4.4125C12.3375 4.40417 12.575 4.5 12.775 4.7C12.975 4.88334 13.0792 5.1125 13.0875 5.3875C13.0958 5.6625 13 5.9 12.8 6.1L7.9 11H19.075C19.3583 11 19.5958 11.0958 19.7875 11.2875C19.9792 11.4792 20.075 11.7167 20.075 12C20.075 12.2833 19.9792 12.5208 19.7875 12.7125C19.5958 12.9042 19.3583 13 19.075 13H7.9L12.8 17.9C12.9833 18.0833 13.0792 18.3167 13.0875 18.6C13.0958 18.8833 13 19.1167 12.8 19.3C12.6167 19.5 12.3833 19.6 12.1 19.6C11.8167 19.6 11.575 19.5 11.375 19.3Z" fill="#1E5E6C"/>
</g>
</g>
</svg>
