<svg width="24" height="24" viewBox="0 0 24 24" fill="none" xmlns="http://www.w3.org/2000/svg">
<g id="Done">
<mask id="mask0_995_127" style="mask-type:alpha" maskUnits="userSpaceOnUse" x="0" y="0" width="24" height="24">
<rect id="Bounding box" width="24" height="24" fill="#D9D9D9"/>
</mask>
<g mask="url(#mask0_995_127)">
<path id="done" d="M9.68077 17.134C9.54744 17.134 9.42244 17.1132 9.30577 17.0715C9.1891 17.0298 9.08077 16.959 8.98077 16.859L4.68077 12.559C4.49743 12.3757 4.40993 12.1382 4.41827 11.8465C4.4266 11.5548 4.52243 11.3173 4.70577 11.134C4.8891 10.9507 5.12243 10.859 5.40577 10.859C5.6891 10.859 5.92243 10.9507 6.10577 11.134L9.68077 14.709L18.1558 6.23398C18.3391 6.05065 18.5766 5.95898 18.8683 5.95898C19.1599 5.95898 19.3974 6.05065 19.5808 6.23398C19.7641 6.41732 19.8558 6.65482 19.8558 6.94648C19.8558 7.23815 19.7641 7.47565 19.5808 7.65898L10.3808 16.859C10.2808 16.959 10.1724 17.0298 10.0558 17.0715C9.9391 17.1132 9.8141 17.134 9.68077 17.134Z" fill="#1C1B1F"/>
</g>
</g>
</svg>
