<svg width="25" height="24" viewBox="0 0 25 24" fill="none" xmlns="http://www.w3.org/2000/svg">
<g id="forward">
<mask id="mask0_995_116" style="mask-type:alpha" maskUnits="userSpaceOnUse" x="0" y="0" width="25" height="24">
<rect id="Bounding box" x="0.633301" width="24" height="24" fill="#D9D9D9"/>
</mask>
<g mask="url(#mask0_995_116)">
<path id="arrow_forward" d="M13.3333 4.71199L19.9333 11.312C20.0333 11.412 20.1041 11.5203 20.1458 11.637C20.1874 11.7537 20.2083 11.8787 20.2083 12.012C20.2083 12.1453 20.1874 12.2703 20.1458 12.387C20.1041 12.5037 20.0333 12.612 19.9333 12.712L13.3333 19.312C13.1499 19.4953 12.9208 19.5912 12.6458 19.5995C12.3708 19.6078 12.1333 19.512 11.9333 19.312C11.7333 19.1287 11.6291 18.8995 11.6208 18.6245C11.6124 18.3495 11.7083 18.112 11.9083 17.912L16.8083 13.012L5.63325 13.012C5.34992 13.012 5.11242 12.9162 4.92075 12.7245C4.72909 12.5328 4.63325 12.2953 4.63325 12.012C4.63325 11.7287 4.72909 11.4912 4.92075 11.2995C5.11242 11.1078 5.34992 11.012 5.63325 11.012L16.8083 11.012L11.9083 6.11199C11.7249 5.92866 11.6291 5.69532 11.6208 5.41199C11.6124 5.12866 11.7083 4.89532 11.9083 4.71199C12.0916 4.51199 12.3249 4.41199 12.6083 4.41199C12.8916 4.41199 13.1333 4.51199 13.3333 4.71199Z" fill="#1C1B1F"/>
</g>
</g>
</svg>
