<svg width="24" height="24" viewBox="0 0 24 24" fill="none" xmlns="http://www.w3.org/2000/svg">
<g id="GPS">
<mask id="mask0_995_31" style="mask-type:alpha" maskUnits="userSpaceOnUse" x="0" y="0" width="24" height="24">
<rect id="Bounding box" width="24" height="24" fill="#D9D9D9"/>
</mask>
<g mask="url(#mask0_995_31)">
<path id="my_location" d="M12.45 22.8545C12.1667 22.8545 11.9292 22.7586 11.7375 22.567C11.5458 22.3753 11.45 22.1378 11.45 21.8545V20.8545C9.36667 20.6211 7.57917 19.7586 6.0875 18.267C4.59583 16.7753 3.73333 14.9878 3.5 12.9045H2.5C2.21667 12.9045 1.97917 12.8086 1.7875 12.617C1.59583 12.4253 1.5 12.1878 1.5 11.9045C1.5 11.6211 1.59583 11.3836 1.7875 11.192C1.97917 11.0003 2.21667 10.9045 2.5 10.9045H3.5C3.73333 8.82113 4.59583 7.03363 6.0875 5.54197C7.57917 4.0503 9.36667 3.1878 11.45 2.95447V1.95447C11.45 1.67113 11.5458 1.43363 11.7375 1.24197C11.9292 1.0503 12.1667 0.954468 12.45 0.954468C12.7333 0.954468 12.9708 1.0503 13.1625 1.24197C13.3542 1.43363 13.45 1.67113 13.45 1.95447V2.95447C15.5333 3.1878 17.3208 4.0503 18.8125 5.54197C20.3042 7.03363 21.1667 8.82113 21.4 10.9045H22.4C22.6833 10.9045 22.9208 11.0003 23.1125 11.192C23.3042 11.3836 23.4 11.6211 23.4 11.9045C23.4 12.1878 23.3042 12.4253 23.1125 12.617C22.9208 12.8086 22.6833 12.9045 22.4 12.9045H21.4C21.1667 14.9878 20.3042 16.7753 18.8125 18.267C17.3208 19.7586 15.5333 20.6211 13.45 20.8545V21.8545C13.45 22.1378 13.3542 22.3753 13.1625 22.567C12.9708 22.7586 12.7333 22.8545 12.45 22.8545ZM12.45 18.9045C14.3833 18.9045 16.0333 18.2211 17.4 16.8545C18.7667 15.4878 19.45 13.8378 19.45 11.9045C19.45 9.97113 18.7667 8.32113 17.4 6.95447C16.0333 5.5878 14.3833 4.90447 12.45 4.90447C10.5167 4.90447 8.86667 5.5878 7.5 6.95447C6.13333 8.32113 5.45 9.97113 5.45 11.9045C5.45 13.8378 6.13333 15.4878 7.5 16.8545C8.86667 18.2211 10.5167 18.9045 12.45 18.9045ZM12.45 15.9045C11.35 15.9045 10.4083 15.5128 9.625 14.7295C8.84167 13.9461 8.45 13.0045 8.45 11.9045C8.45 10.8045 8.84167 9.8628 9.625 9.07947C10.4083 8.29613 11.35 7.90447 12.45 7.90447C13.55 7.90447 14.4917 8.29613 15.275 9.07947C16.0583 9.8628 16.45 10.8045 16.45 11.9045C16.45 13.0045 16.0583 13.9461 15.275 14.7295C14.4917 15.5128 13.55 15.9045 12.45 15.9045Z" fill="#1C1B1F"/>
</g>
</g>
</svg>
