<svg width="25" height="24" viewBox="0 0 25 24" fill="none" xmlns="http://www.w3.org/2000/svg">
<g id="Info">
<mask id="mask0_387_15988" style="mask-type:alpha" maskUnits="userSpaceOnUse" x="0" y="0" width="25" height="24">
<rect id="Bounding box" x="0.5" width="24" height="24" fill="#D9D9D9"/>
</mask>
<g mask="url(#mask0_387_15988)">
<path id="info" d="M12.8069 16.5554C13.0902 16.5554 13.3277 16.4596 13.5194 16.2679C13.7111 16.0763 13.8069 15.8388 13.8069 15.5554V11.5554C13.8069 11.2721 13.7111 11.0346 13.5194 10.8429C13.3277 10.6513 13.0902 10.5554 12.8069 10.5554C12.5236 10.5554 12.2861 10.6513 12.0944 10.8429C11.9027 11.0346 11.8069 11.2721 11.8069 11.5554V15.5554C11.8069 15.8388 11.9027 16.0763 12.0944 16.2679C12.2861 16.4596 12.5236 16.5554 12.8069 16.5554ZM12.8069 8.55542C13.0902 8.55542 13.3277 8.45959 13.5194 8.26792C13.7111 8.07625 13.8069 7.83875 13.8069 7.55542C13.8069 7.27209 13.7111 7.03459 13.5194 6.84292C13.3277 6.65125 13.0902 6.55542 12.8069 6.55542C12.5236 6.55542 12.2861 6.65125 12.0944 6.84292C11.9027 7.03459 11.8069 7.27209 11.8069 7.55542C11.8069 7.83875 11.9027 8.07625 12.0944 8.26792C12.2861 8.45959 12.5236 8.55542 12.8069 8.55542ZM12.8069 21.5554C11.4236 21.5554 10.1236 21.2929 8.90688 20.7679C7.69022 20.2429 6.63188 19.5304 5.73188 18.6304C4.83188 17.7304 4.11938 16.6721 3.59438 15.4554C3.06938 14.2388 2.80688 12.9388 2.80688 11.5554C2.80688 10.1721 3.06938 8.87209 3.59438 7.65542C4.11938 6.43875 4.83188 5.38042 5.73188 4.48042C6.63188 3.58042 7.69022 2.86792 8.90688 2.34292C10.1236 1.81792 11.4236 1.55542 12.8069 1.55542C14.1902 1.55542 15.4902 1.81792 16.7069 2.34292C17.9236 2.86792 18.9819 3.58042 19.8819 4.48042C20.7819 5.38042 21.4944 6.43875 22.0194 7.65542C22.5444 8.87209 22.8069 10.1721 22.8069 11.5554C22.8069 12.9388 22.5444 14.2388 22.0194 15.4554C21.4944 16.6721 20.7819 17.7304 19.8819 18.6304C18.9819 19.5304 17.9236 20.2429 16.7069 20.7679C15.4902 21.2929 14.1902 21.5554 12.8069 21.5554Z" fill="#45B8DA"/>
</g>
</g>
</svg>
