<svg width="25" height="25" viewBox="0 0 25 25" fill="none" xmlns="http://www.w3.org/2000/svg">
<g id="Lowest">
<mask id="mask0_604_3459" style="mask-type:alpha" maskUnits="userSpaceOnUse" x="0" y="0" width="25" height="25">
<rect id="Bounding box" x="0.25" y="0.5" width="24" height="24" fill="#D9D9D9"/>
</mask>
<g mask="url(#mask0_604_3459)">
<path id="arrow_drop_down" d="M12.05 14.7545L9.44998 12.1545C9.13331 11.8378 9.06248 11.4753 9.23748 11.067C9.41248 10.6586 9.72498 10.4545 10.175 10.4545H15.325C15.775 10.4545 16.0875 10.6586 16.2625 11.067C16.4375 11.4753 16.3666 11.8378 16.05 12.1545L13.45 14.7545C13.35 14.8545 13.2416 14.9295 13.125 14.9795C13.0083 15.0295 12.8833 15.0545 12.75 15.0545C12.6166 15.0545 12.4916 15.0295 12.375 14.9795C12.2583 14.9295 12.15 14.8545 12.05 14.7545Z" fill="#1E5E6C"/>
</g>
</g>
</svg>
